#!OML:ASF E:\emotionWalksFemale\Project 1\Capture day 1\Session 1\Female1.ASF
:FULLY-SPECIFIED
:DEGREES
1991
root 9.73432 15.6238 2.69986 3.52164 1.99506 -1.40995
lowerback 11.1249 1.51714 -3.09492
upperback 4.66683 1.65798 -1.47825
thorax -1.40883 0.806912 0.00752749
lowerneck -4.27388 0.375538 -4.9978
upperneck 44.0126 3.64451 -3.99507
head 16.7702 0.241654 -0.361993
rclavicle 1.88845e-014 -4.05521e-014
rhumerus -32.5933 9.62999 -86.2159
rradius 35.2977
rwrist 10.7435
rhand -2.78098 -49.8383
rfingers 7.12502
rthumb 22.9241 -78.4955
lclavicle 1.88845e-014 -4.05521e-014
lhumerus -28.4569 16.1958 77.3168
lradius 39.6297
lwrist -9.3529
lhand -8.46907 -29.6538
lfingers 7.12502
lthumb 17.4575 -0.417652
rfemur -21.9088 -3.09417 25.3773
rtibia 68.8181
rfoot -8.00542 -8.02396
rtoes -15.9367
lfemur -17.9611 -14.3384 -24.0866
ltibia 29.8124
lfoot -16.4036 12.0978
ltoes -16.5494
1992
root 9.7394 15.6266 2.79096 3.44537 2.13024 -1.32667
lowerback 11.2562 1.44897 -3.14285
upperback 4.58664 1.55478 -1.47893
thorax -1.56251 0.757297 0.0419686
lowerneck -4.23938 0.41046 -4.98504
upperneck 44.0818 3.67574 -3.94671
head 16.7998 0.260149 -0.339944
rclavicle -1.21259e-014 7.15625e-015
rhumerus -32.7678 9.75066 -86.3234
rradius 35.4531
rwrist 10.5574
rhand -2.81746 -49.6046
rfingers 7.12502
rthumb 22.8891 -78.2661
lclavicle -1.21259e-014 7.15625e-015
lhumerus -28.4542 16.1687 77.3056
lradius 39.8688
lwrist -8.98914
lhand -8.28873 -29.9028
lfingers 7.12502
lthumb 17.631 -0.682159
rfemur -22.8213 -2.76157 25.3136
rtibia 68.7537
rfoot -8.95966 -8.65694
rtoes -15.0589
lfemur -17.542 -14.3012 -24.3062
ltibia 29.9109
lfoot -16.8558 11.9721
ltoes -15.0892
1993
root 9.7444 15.6206 2.88107 3.31715 2.3386 -1.12851
lowerback 11.3023 1.33847 -3.26753
upperback 4.62998 1.39497 -1.50622
thorax -1.54037 0.676458 0.103199
lowerneck -4.14378 0.356749 -5.34722
upperneck 44.1716 3.39554 -3.30453
head 16.7968 0.160186 -0.0262082
rclavicle 5.96354e-016 2.14687e-014
rhumerus -32.8484 9.79083 -86.3904
rradius 35.5941
rwrist 10.4725
rhand -3.23845 -49.1444
rfingers 7.12502
rthumb 22.4851 -77.8553
lclavicle 5.96354e-016 2.14687e-014
lhumerus -28.1818 16.1445 77.378
lradius 40.0643
lwrist -8.61556
lhand -8.25735 -29.9201
lfingers 7.12502
lthumb 17.6612 -0.702223
rfemur -23.5824 -2.57791 25.1114
rtibia 68.5374
rfoot -9.65944 -9.17587
rtoes -15.0442
lfemur -17.1212 -14.3256 -24.671
ltibia 30.1454
lfoot -17.2774 11.8137
ltoes -13.1356
1994
root 9.75082 15.6029 2.96404 3.33054 2.477 -0.908692
lowerback 11.2171 1.27635 -3.45045
upperback 4.66344 1.29929 -1.51948
thorax -1.45968 0.626095 0.206224
lowerneck -3.96335 0.321094 -5.26346
upperneck 43.7814 3.34796 -3.49466
head 16.5343 0.146154 -0.128235
rclavicle -2.98177e-015 3.33958e-014
rhumerus -32.8642 9.81943 -86.3716
rradius 35.7351
rwrist 10.4217
rhand -3.39813 -49.1448
rfingers 7.12502
rthumb 22.3318 -77.8742
lclavicle -2.98177e-015 3.33958e-014
lhumerus -27.7665 15.8972 77.6606
lradius 40.4254
lwrist -7.89956
lhand -7.99969 -28.5795
lfingers 7.12502
lthumb 17.9091 0.61591
rfemur -24.5066 -2.36898 24.8645
rtibia 68.2735
rfoot -10.4125 -9.62606
rtoes -14.995
lfemur -16.8594 -14.352 -25.0448
ltibia 30.3937
lfoot -17.6533 11.7704
ltoes -13.652
1995
root 9.74217 15.5913 3.05953 3.10731 2.38873 -1.28993
lowerback 11.2852 1.31733 -3.35078
upperback 4.69216 1.36577 -1.31747
thorax -1.47177 0.658245 0.350357
lowerneck -3.89074 0.339012 -5.14768
upperneck 43.6555 3.42703 -3.72563
head 16.4549 0.174918 -0.239717
rclavicle -1.5704e-014 -1.51076e-014
rhumerus -32.9856 9.99251 -86.431
rradius 35.7812
rwrist 10.2099
rhand -3.6489 -49.2023
rfingers 7.12502
rthumb 22.0911 -77.9604
lclavicle -1.5704e-014 -1.51076e-014
lhumerus -27.6061 15.4812 77.8629
lradius 41.0857
lwrist -6.85026
lhand -7.32503 -27.2273
lfingers 7.12502
lthumb 18.5582 1.90741
rfemur -25.1464 -1.6627 25.4046
rtibia 67.7742
rfoot -11.0914 -10.4161
rtoes -13.9884
lfemur -16.4468 -14.1037 -24.7198
ltibia 30.6937
lfoot -18.0691 11.6996
ltoes -13.7432
1996
root 9.74521 15.5825 3.14262 3.09047 2.50436 -0.995485
lowerback 11.4316 1.25624 -3.59323
upperback 4.65118 1.24996 -1.38149
thorax -1.59318 0.600716 0.431041
lowerneck -4.12413 0.422083 -5.02122
upperneck 43.7848 3.62458 -3.88926
head 16.5949 0.249098 -0.309855
rclavicle 6.16232e-015 7.95139e-016
rhumerus -33.0348 10.0051 -86.5031
rradius 35.7812
rwrist 10.0604
rhand -3.69745 -49.0625
rfingers 7.12502
rthumb 22.0445 -77.8261
lclavicle 6.16232e-015 7.95139e-016
lhumerus -27.5302 15.2305 77.9262
lradius 41.687
lwrist -6.19674
lhand -6.97733 -26.9181
lfingers 7.12502
lthumb 18.8926 2.18439
rfemur -26.0771 -1.40249 25.0835
rtibia 67.2489
rfoot -11.8371 -11.0235
rtoes -13.3847
lfemur -16.2088 -14.0366 -25.1542
ltibia 30.9788
lfoot -18.3506 11.6548
ltoes -13.8437
1997
root 9.74943 15.5691 3.22431 3.11261 2.64151 -0.840528
lowerback 11.3767 1.18324 -3.6708
upperback 4.67827 1.14889 -1.40648
thorax -1.53229 0.548984 0.462815
lowerneck -4.17902 0.323676 -5.22685
upperneck 43.7424 3.4303 -3.68588
head 16.5737 0.159529 -0.207564
rclavicle -5.96354e-016 8.74653e-015
rhumerus -32.9651 9.64316 -86.4096
rradius 35.8132
rwrist 10.3484
rhand -2.96219 -49.1925
rfingers 7.12502
rthumb 22.7502 -77.8712
lclavicle -5.96354e-016 8.74653e-015
lhumerus -27.2582 15.344 77.9954
lradius 41.9364
lwrist -6.10899
lhand -6.8665 -27.2842
lfingers 7.12502
lthumb 18.9992 1.80788
rfemur -26.9676 -1.17327 24.9164
rtibia 66.55
rfoot -12.7187 -11.5784
rtoes -14.554
lfemur -15.9559 -14.0587 -25.4489
ltibia 31.2603
lfoot -18.773 11.6842
ltoes -15.3442
1998
root 9.7481 15.5543 3.31617 3.07672 2.64533 -0.860286
lowerback 11.2914 1.20227 -3.70592
upperback 4.67795 1.17596 -1.35565
thorax -1.48879 0.561093 0.533369
lowerneck -4.20516 0.250096 -5.44035
upperneck 43.6869 3.27951 -3.48839
head 16.5397 0.088436 -0.100155
rclavicle -2.80286e-014 -7.15625e-015
rhumerus -33.0175 9.3235 -86.2964
rradius 35.8161
rwrist 10.6959
rhand -2.26933 -49.4379
rfingers 7.12502
rthumb 23.415 -78.0334
lclavicle -2.80286e-014 -7.15625e-015
lhumerus -27.2183 15.2812 78.0926
lradius 42.321
lwrist -5.89906
lhand -6.90363 -27.8294
lfingers 7.12502
lthumb 18.9635 1.26619
rfemur -27.6616 -0.664461 24.9735
rtibia 65.707
rfoot -13.5573 -11.9882
rtoes -15.4801
lfemur -15.5728 -14.0264 -25.5327
ltibia 31.432
lfoot -19.3184 11.7439
ltoes -16.423
1999
root 9.74438 15.5381 3.40705 2.96784 2.72771 -0.726899
lowerback 11.5397 1.23088 -3.85833
upperback 4.56201 1.17995 -1.3873
thorax -1.74652 0.566694 0.57956
lowerneck -4.16619 0.208858 -5.24525
upperneck 43.6899 3.25522 -3.68357
head 16.5402 0.087075 -0.226335
rclavicle 1.39149e-015 1.59028e-015
rhumerus -33.2302 9.14552 -86.3412
rradius 35.6917
rwrist 10.7134
rhand -2.113 -49.4862
rfingers 7.12502
rthumb 23.565 -78.0624
lclavicle 1.39149e-015 1.59028e-015
lhumerus -27.6208 14.7612 78.1741
lradius 43.0501
lwrist -5.47315
lhand -7.21954 -28.1392
lfingers 7.12502
lthumb 18.6597 0.985849
rfemur -28.242 -0.250001 24.8559
rtibia 64.7154
rfoot -14.0013 -12.4087
rtoes -14.2619
lfemur -15.1284 -13.9101 -25.7876
ltibia 31.6139
lfoot -19.8034 11.6172
ltoes -16.7712
2000
root 9.74436 15.5205 3.49207 2.92102 2.90297 -0.513819
lowerback 11.7989 1.20136 -3.99735
upperback 4.437 1.10524 -1.47208
thorax -2.01537 0.534419 0.573242
lowerneck -3.99708 0.206702 -5.08085
upperneck 43.4508 3.24632 -3.83614
head 16.3683 0.101516 -0.321389
rclavicle 1.98785e-016 2.38542e-014
rhumerus -33.4586 8.84433 -86.431
rradius 35.6079
rwrist 10.8095
rhand -2.12859 -49.4696
rfingers 7.12502
rthumb 23.5501 -78.0478
lclavicle 1.98785e-016 2.38542e-014
lhumerus -27.8478 14.4546 78.2147
lradius 43.5677
lwrist -5.43059
lhand -7.68748 -29.3596
lfingers 7.12502
lthumb 18.2095 -0.191955
rfemur -28.875 -0.0169882 24.6371
rtibia 63.5803
rfoot -14.0042 -13.058
rtoes -13.4304
lfemur -14.7931 -13.8529 -26.1123
ltibia 31.8138
lfoot -20.1987 11.2606
ltoes -15.6503
2001
root 9.74405 15.5078 3.58444 2.83895 3.05584 -0.525382
lowerback 11.7972 1.14829 -3.97851
upperback 4.46946 1.03977 -1.44184
thorax -1.97826 0.501076 0.603292
lowerneck -4.01555 0.186973 -5.29348
upperneck 43.3625 3.11523 -3.49877
head 16.3082 0.0563054 -0.149075
rclavicle 5.36719e-015 1.43125e-014
rhumerus -33.5831 8.75057 -86.5044
rradius 35.6907
rwrist 10.7017
rhand -2.2503 -49.6561
rfingers 7.12502
rthumb 23.4333 -78.2493
lclavicle 5.36719e-015 1.43125e-014
lhumerus -27.5923 14.4745 78.3131
lradius 43.7285
lwrist -5.58151
lhand -8.44505 -31.7687
lfingers 7.12502
lthumb 17.4806 -2.53462
rfemur -29.3587 0.347194 24.6628
rtibia 62.2775
rfoot -14.0372 -13.7853
rtoes -12.054
lfemur -14.3836 -13.8857 -26.1795
ltibia 31.9469
lfoot -20.4842 11.0098
ltoes -13.6415
